<?xml version="1.0" encoding="UTF-8" standalone="no"?>
<!-- Created with Inkscape (http://www.inkscape.org/) -->

<svg
   width="180"
   height="180"
   viewBox="0 0 47.624999 47.625"
   version="1.1"
   id="svg1"
   inkscape:version="1.4.2 (f4327f4, 2025-05-13)"
   sodipodi:docname="faviconSVG.svg"
   inkscape:export-filename="favicon.png"
   inkscape:export-xdpi="96"
   inkscape:export-ydpi="96"
   xmlns:inkscape="http://www.inkscape.org/namespaces/inkscape"
   xmlns:sodipodi="http://sodipodi.sourceforge.net/DTD/sodipodi-0.dtd"
   xmlns="http://www.w3.org/2000/svg"
   xmlns:svg="http://www.w3.org/2000/svg">
  <sodipodi:namedview
     id="namedview1"
     pagecolor="#ffffff"
     bordercolor="#000000"
     borderopacity="0.25"
     inkscape:showpageshadow="2"
     inkscape:pageopacity="0.0"
     inkscape:pagecheckerboard="0"
     inkscape:deskcolor="#d1d1d1"
     inkscape:document-units="mm"
     inkscape:zoom="1.8280303"
     inkscape:cx="90.808123"
     inkscape:cy="106.39867"
     inkscape:window-width="1366"
     inkscape:window-height="715"
     inkscape:window-x="-8"
     inkscape:window-y="-8"
     inkscape:window-maximized="1"
     inkscape:current-layer="g59" />
  <defs
     id="defs1">
    <inkscape:path-effect
       effect="perspective-envelope"
       up_left_point="3.6184216,12.450002"
       up_right_point="36.2,1.0157915"
       down_left_point="2.31579,45.03158"
       down_right_point="38.226316,46.478949"
       id="path-effect3"
       is_visible="true"
       lpeversion="1"
       deform_type="perspective"
       horizontal_mirror="false"
       vertical_mirror="false"
       overflow_perspective="true" />
    <inkscape:path-effect
       effect="perspective-envelope"
       up_left_point="3.6184216,12.450002"
       up_right_point="36.2,1.0157915"
       down_left_point="2.31579,45.03158"
       down_right_point="38.226316,46.478949"
       id="path-effect1"
       is_visible="true"
       lpeversion="1"
       deform_type="perspective"
       horizontal_mirror="false"
       vertical_mirror="false"
       overflow_perspective="true" />
  </defs>
  <g
     inkscape:label="Camada 1"
     inkscape:groupmode="layer"
     id="layer1"
     transform="translate(-1.1578947,2.6052632)">
    <path
       d="m 6.74602,11.2993 0.069944,-2.24405 7.92848,-2.78243 9.52051,-3.34114 0.03657,2.65543 0.03708,2.69241 2.72684,-0.816629 2.87307,-0.860424 0.08102,2.86527 0.08222,2.90794 -5.68742,1.40274 -5.12909,1.26503 -0.0021,-2.64217 -0.002,-2.60715 -4.59019,1.37466 -4.18482,1.25326 -0.10358,4.81221 -0.106144,4.93135 8.99302,-1.72994 10.9805,-2.11226 0.08601,3.04181 0.08733,3.0885 3.18957,-0.435688 3.37913,-0.461582 0.29811,6.68849 0.30813,6.91332 -3.50739,0.07131 -3.30441,0.06718 0.09441,3.33887 0.09593,3.39259 -14.237,-0.573821 -11.0021,-0.443438 0.081668,-2.62021 0.080665,-2.58803 -1.88775,0.03838 -1.80666,0.03673 0.097861,-2.4477 0.096724,-2.41927 3.65823,-0.290007 3.9977,-0.316919 -0.05685,2.64133 -0.05758,2.67529 6.82877,-0.138835 7.94953,-0.161621 -0.085,-6.1719 -0.08253,-5.99252 -10.0503,1.37285 -8.28912,1.13228 0.075917,-2.4357 0.075018,-2.40685 -1.83193,0.352399 -1.75591,0.337776 0.181628,-4.5429 0.177595,-4.44204 1.72356,-0.516171 1.79645,-0.537998 z"
       id="text1"
       style="font-size:50.8px;font-family:'Press Start 2P';-inkscape-font-specification:'Press Start 2P, Normal';display:none;stroke:#000000;stroke-width:1.5875;stroke-linecap:round;stroke-linejoin:round;paint-order:markers stroke fill"
       aria-label="S"
       sodipodi:insensitive="true" />
    <g
       id="g59"
       style="display:inline;stroke:#39ff14;stroke-opacity:1">
      <g
         id="g63"
         style="stroke:#000000;stroke-opacity:1;stroke-width:1.37054167;stroke-dasharray:none;stroke-linejoin:round;stroke-linecap:round">
        <path
           style="fill:none;fill-opacity:1;stroke:#000000;stroke-width:1.37054167;stroke-linecap:round;stroke-linejoin:round;stroke-dasharray:none;stroke-opacity:1;paint-order:markers stroke fill"
           d="M 36.262025,6.1963553 C 39.741735,6.094011 43.119099,4.4565005 44.244888,2.4096125 45.370677,0.36272438 44.449577,-1.274786 44.449577,-1.274786"
           id="path62" />
        <path
           style="fill:none;fill-opacity:1;stroke:#000000;stroke-width:1.37054167;stroke-linecap:round;stroke-linejoin:round;stroke-dasharray:none;stroke-opacity:1;paint-order:markers stroke fill"
           d="m 36.262025,6.1963553 c 5.731285,-0.6140665 7.880519,-2.7632988 8.596929,-5.11722 0.71641,-2.3539213 1.432822,-1.94454369 1.432822,-1.94454369"
           id="path63" />
      </g>
      <path
         id="path60"
         style="display:inline;fill:#39ff14;fill-opacity:1;stroke:#000000;stroke-width:3.77745625;stroke-linejoin:round;stroke-opacity:1;stroke-dasharray:none"
         d="M 30.318389,-0.46895949 20.83628,2.858486 12.940121,5.629893 9.7542692,10.372239 9.7335986,11.043516 9.294349,11.175291 6.4826343,15.34868 l -0.1581299,3.96875 -0.1627808,4.060217 1.5694133,-0.30179 1.6371094,-0.315227 -0.067179,2.15129 -0.067696,2.176095 7.4067837,-1.011825 8.981881,-1.226798 0.0739,5.355228 0.05168,3.777548 -2.873727,0.05839 -6.801134,0.138493 0.05788,-2.664437 0.05633,-2.630847 -3.98167,0.315743 -3.6431886,0.288871 -2.7357503,2.291333 -0.086816,2.162142 -0.087333,2.187463 1.6143718,-0.03359 1.6867187,-0.03411 -0.07183,2.313037 -0.072864,2.34146 9.8319584,0.396358 12.72222,0.51263 5.66012,-1.16427 -0.0956,-3.378605 -0.04496,-1.588534 0.397392,-0.0078 6.337598,-1.86707 -0.306442,-6.885368 -0.297139,-6.661092 v -5.16e-4 l -1.682585,0.22996 -1.683101,0.22996 -3.176551,0.434082 -0.08682,-3.075781 v -5.17e-4 l -0.08578,-3.029273 -10.935766,2.103748 -8.95656,1.722892 0.10542,-4.911328 0.03101,-1.440222 0.248564,-0.07441 4.102075,-1.228349 10e-4,2.329574 0.0021,2.361096 4.583699,-1.130164 5.082377,-1.25367 5.568653,-4.402832 -0.08165,-2.8959473 -0.08113,-2.8535726 v -5.168e-4 l -2.861324,0.857312 -2.715597,0.8128703 -0.03721,-2.6809733 z M 25.354867,6.3657654 20.783053,7.7351909 16.615349,8.9831767 20.783053,7.7346741 Z m 0.0031,3.9124226 0.001,1.315682 h -5.16e-4 z m 5.266345,11.486121 v 5.17e-4 l -10.009208,1.367358 -4.127913,0.56379 4.127913,-0.564307 z m -18.738391,17.683675 10.957471,0.441317 8.479586,0.341581 v 5.17e-4 l -8.479586,-0.341582 z" />
      <path
         id="path3"
         style="display:inline;fill:#39ff14;fill-opacity:1;stroke:#39ff14;stroke-width:0.893623px;stroke-linejoin:round;stroke-opacity:1"
         d="M 30.318236,-0.46878416 20.836251,2.8584309 12.94006,5.6296477 9.7541541,10.372256 l -0.020781,0.671447 -0.4391647,0.131611 -2.8113928,4.173218 -0.1583949,3.969107 -0.1625509,4.06008 1.569171,-0.302012 1.6370544,-0.314943 -0.06696,2.15103 -0.067883,2.176428 7.4071518,-1.011788 8.981403,-1.226982 0.07388,5.354946 0.05172,3.777924 -2.873273,0.05818 -6.801279,0.138538 0.05772,-2.664543 0.05634,-2.630831 -3.981575,0.315865 -3.6430812,0.28862 -2.7361207,2.291415 -0.086817,2.162112 -0.087278,2.187512 1.6144267,-0.03325 1.6869279,-0.03417 -0.072039,2.312657 -0.072963,2.34175 9.8320243,0.396218 12.722383,0.512589 5.660191,-1.164179 -0.09559,-3.378474 -0.04525,-1.588566 0.397604,-0.0079 6.33764,-1.867027 -0.30663,-6.885326 -0.296933,-6.661356 -3.365544,0.459945 -3.17667,0.433623 -0.08682,-3.076001 -0.0859,-3.029359 -10.935708,2.103466 -8.956928,1.722948 0.10575,-4.911164 0.03094,-1.440331 0.248444,-0.07435 4.102102,-1.228368 0.0014,2.329743 0.0019,2.361145 4.583751,-1.130468 5.082489,-1.253304 5.568294,-4.4031917 -0.08174,-2.8959012 -0.08081,-2.8538777 -2.861266,0.857087 -2.715802,0.8132166 -0.03694,-2.6811673 z m -4.971196,5.36926146 0.03279,2.3726899 0.03279,2.4059391 2.436879,-0.729632 2.567566,-0.768885 0.06095,2.1505677 -0.01108,0.0028 -5.108348,1.25977 -0.0019,-2.6312937 -0.0019,-2.5966588 -4.571745,1.3692148 -4.167677,1.248225 -3.563654,4.3981107 -0.09236,4.300213 -0.09513,4.406886 8.036575,-1.546082 9.812167,-1.887808 0.07712,2.718573 0.07804,2.759672 2.850184,-0.38929 3.01966,-0.412382 0.266456,5.976981 0.197647,4.44152 -0.368973,0.0074 -5.640795,1.852712 0.08451,2.983642 0.04618,1.637978 -8.479434,-0.341726 -10.957414,-0.441475 0.08127,-2.609589 0.08035,-2.577727 -1.880419,0.03833 -1.7991433,0.03648 0.097438,-2.437802 0.01293,-0.328333 0.616493,-0.04895 3.5724263,-0.283079 -0.05079,2.360222 -0.05172,2.3907 6.102588,-0.123761 7.103754,-0.14454 5.020147,-1.840243 -0.08497,-6.14692 -0.08219,-5.968207 -10.009353,1.367367 -8.255465,1.127236 0.07527,-2.425796 0.07481,-2.396703 -1.824542,0.350963 -1.7488079,0.336184 0.1810226,-4.524643 0.042023,-1.052425 0.4691813,-0.140385 3.171592,-4.280817 0.02586,-0.8312257 4.012977,-1.408467 z" />
      <path
         d="m 12.870359,7.8647573 0.06966,-2.2349585 7.896347,-2.7711514 9.481927,-3.32759666 0.03642,2.64466866 0.03693,2.6814972 2.715784,-0.8133197 2.861428,-0.8569371 0.08069,2.8536553 0.08188,2.8961502 -5.664366,1.3970527 -5.108306,1.259907 -0.0021,-2.6314567 -0.002,-2.596588 -4.571585,1.369093 -4.167856,1.248185 -0.103159,4.7927017 -0.105714,4.911369 8.956577,-1.722932 10.935975,-2.103699 0.08566,3.029486 0.08698,3.075981 3.17664,-0.433922 3.365434,-0.459712 0.296902,6.661387 0.306881,6.885298 -3.49318,0.07103 -3.291013,0.0669 0.09403,3.325339 0.09554,3.378839 -14.179307,-0.571495 -10.957504,-0.441641 0.08134,-2.609587 0.08034,-2.577541 -1.880104,0.03822 -1.7993394,0.03659 0.097465,-2.437784 0.096332,-2.409464 3.6433994,-0.288832 3.981496,-0.315634 -0.05662,2.630623 -0.05734,2.664446 6.801091,-0.138272 7.917317,-0.160965 -0.08465,-6.146892 -0.0822,-5.968229 -10.009593,1.36729 -8.255526,1.127689 0.07561,-2.425829 0.07471,-2.397097 -1.824504,0.350971 -1.7487977,0.336407 0.1808918,-4.524486 0.1768758,-4.424036 1.7165761,-0.514079 1.789169,-0.535818 z"
         id="path59"
         style="font-size:50.8px;font-family:'Press Start 2P';-inkscape-font-specification:'Press Start 2P, Normal';display:inline;fill:#ffffff;stroke:#39ff14;stroke-width:1.58107;stroke-linecap:round;stroke-linejoin:round;stroke-opacity:1;paint-order:markers stroke fill"
         aria-label="S" />
    </g>
    <circle
       style="fill:#000000;fill-opacity:1;stroke:none;stroke-width:0.919956;stroke-linecap:round;stroke-linejoin:round;stroke-dasharray:none;stroke-opacity:1;paint-order:markers stroke fill"
       id="path61"
       cx="30.83777"
       cy="6.1963553"
       r="0.9210996" />
  </g>
</svg>
